<svg width="24" height="25" viewBox="0 0 24 25" fill="none" xmlns="http://www.w3.org/2000/svg">
<path d="M21.7406 20.375C20.3412 17.9643 18.1011 16.1549 15.45 15.2938C16.7207 14.5381 17.7082 13.3862 18.2608 12.0148C18.8134 10.6435 18.9004 9.12869 18.5086 7.70309C18.1167 6.2775 17.2677 5.01998 16.0918 4.12373C14.916 3.22748 13.4784 2.74207 12 2.74207C10.5215 2.74207 9.08393 3.22748 7.90809 4.12373C6.73225 5.01998 5.88319 6.2775 5.49135 7.70309C5.09951 9.12869 5.18656 10.6435 5.73912 12.0148C6.29169 13.3862 7.2792 14.5381 8.54997 15.2938C5.89881 16.1549 3.65878 17.9643 2.25934 20.375C2.19063 20.4881 2.1543 20.6178 2.1543 20.75C2.1543 20.8823 2.19063 21.012 2.25934 21.125C2.32345 21.24 2.41738 21.3355 2.53123 21.4015C2.64508 21.4675 2.77463 21.5015 2.90622 21.5H21.0937C21.2253 21.5015 21.3549 21.4675 21.4687 21.4015C21.5826 21.3355 21.6765 21.24 21.7406 21.125C21.8093 21.012 21.8456 20.8823 21.8456 20.75C21.8456 20.6178 21.8093 20.4881 21.7406 20.375Z" fill="#0092AC"/>
</svg>
