<svg width="24" height="25" viewBox="0 0 24 25" fill="none" xmlns="http://www.w3.org/2000/svg">
<path d="M20.25 4.25H3.75C3.35218 4.25 2.97064 4.40804 2.68934 4.68934C2.40804 4.97064 2.25 5.35218 2.25 5.75V19.25C2.25 19.6478 2.40804 20.0294 2.68934 20.3107C2.97064 20.592 3.35218 20.75 3.75 20.75H20.25C20.6478 20.75 21.0294 20.592 21.3107 20.3107C21.592 20.0294 21.75 19.6478 21.75 19.25V5.75C21.75 5.35218 21.592 4.97064 21.3107 4.68934C21.0294 4.40804 20.6478 4.25 20.25 4.25ZM12 13.25C10.8065 13.25 9.66193 12.7759 8.81802 11.932C7.97411 11.0881 7.5 9.94347 7.5 8.75C7.5 8.55109 7.57902 8.36032 7.71967 8.21967C7.86032 8.07902 8.05109 8 8.25 8C8.44891 8 8.63968 8.07902 8.78033 8.21967C8.92098 8.36032 9 8.55109 9 8.75C9 9.54565 9.31607 10.3087 9.87868 10.8713C10.4413 11.4339 11.2044 11.75 12 11.75C12.7956 11.75 13.5587 11.4339 14.1213 10.8713C14.6839 10.3087 15 9.54565 15 8.75C15 8.55109 15.079 8.36032 15.2197 8.21967C15.3603 8.07902 15.5511 8 15.75 8C15.9489 8 16.1397 8.07902 16.2803 8.21967C16.421 8.36032 16.5 8.55109 16.5 8.75C16.5 9.94347 16.0259 11.0881 15.182 11.932C14.3381 12.7759 13.1935 13.25 12 13.25Z" fill="#0092AC"/>
</svg>
