<svg width="20" height="20" viewBox="0 0 20 20" fill="none" xmlns="http://www.w3.org/2000/svg">
<path fill-rule="evenodd" clip-rule="evenodd" d="M11.4852 10.0004L18.0933 3.35662C18.2904 3.15807 18.4009 2.88968 18.4009 2.60995C18.4009 2.33022 18.2904 2.06183 18.0933 1.86328C17.9962 1.76523 17.8805 1.68741 17.7531 1.63429C17.6257 1.58118 17.489 1.55383 17.3509 1.55383C17.2129 1.55383 17.0762 1.58118 16.9488 1.63429C16.8214 1.68741 16.7057 1.76523 16.6086 1.86328L10.0001 8.50712L3.39201 1.86328C3.29483 1.76523 3.17919 1.68741 3.05177 1.63429C2.92434 1.58118 2.78766 1.55383 2.64961 1.55383C2.51157 1.55383 2.37488 1.58118 2.24746 1.63429C2.12004 1.68741 2.0044 1.76523 1.90722 1.86328C1.71018 2.06183 1.59961 2.33022 1.59961 2.60995C1.59961 2.88968 1.71018 3.15807 1.90722 3.35662L8.51535 10.0004L1.90722 16.6443C1.71019 16.8427 1.59961 17.111 1.59961 17.3906C1.59961 17.6702 1.71019 17.9385 1.90722 18.1368C2.00443 18.2348 2.12008 18.3126 2.2475 18.3657C2.37492 18.4188 2.51158 18.4461 2.64961 18.4461C2.78765 18.4461 2.92431 18.4188 3.05173 18.3657C3.17915 18.3126 3.29479 18.2348 3.39201 18.1368L10.0001 11.4929L16.6086 18.1368C16.7058 18.2348 16.8214 18.3126 16.9488 18.3657C17.0763 18.4188 17.2129 18.4461 17.3509 18.4461C17.489 18.4461 17.6256 18.4188 17.7531 18.3657C17.8805 18.3126 17.9961 18.2348 18.0933 18.1368C18.2904 17.9385 18.401 17.6702 18.401 17.3906C18.401 17.111 18.2904 16.8427 18.0933 16.6443L11.4852 10.0004Z" fill="#ADADAD"/>
</svg>
