<svg width="12" height="8" viewBox="0 0 12 8" fill="none" xmlns="http://www.w3.org/2000/svg">
<mask id="path-1-inside-1_4996_109660" fill="white">
<path d="M5.3317 5.12327C5.40257 5.18552 5.49032 5.2159 5.57807 5.2159C5.6827 5.2159 5.78657 5.1724 5.86082 5.08727L9.08845 1.38827C9.22458 1.23227 9.20845 0.995271 9.05245 0.859146C8.89682 0.723021 8.6602 0.738771 8.52333 0.895146L5.2957 4.59415C5.1592 4.75015 5.17532 4.98715 5.3317 5.12327Z"/>
</mask>
<path d="M5.3317 5.12327C5.40257 5.18552 5.49032 5.2159 5.57807 5.2159C5.6827 5.2159 5.78657 5.1724 5.86082 5.08727L9.08845 1.38827C9.22458 1.23227 9.20845 0.995271 9.05245 0.859146C8.89682 0.723021 8.6602 0.738771 8.52333 0.895146L5.2957 4.59415C5.1592 4.75015 5.17532 4.98715 5.3317 5.12327Z" fill="#0092AC"/>
<path d="M5.86082 5.08727L-6.19493 -5.43218L-6.19684 -5.42999L5.86082 5.08727ZM9.08845 1.38827L-2.96713 -9.13138L-2.9673 -9.13118L9.08845 1.38827ZM9.05245 0.859146L-1.48157 12.9022L-1.47439 12.9085L-1.4672 12.9147L9.05245 0.859146ZM8.52333 0.895146L-3.51611 -9.64297L-3.52428 -9.63365L-3.53243 -9.6243L8.52333 0.895146ZM5.2957 4.59415L17.3369 15.1302L17.3442 15.1219L17.3515 15.1136L5.2957 4.59415ZM-5.22687 17.1448C-2.10717 19.8848 1.77992 21.2159 5.57807 21.2159V-10.7841C9.20073 -10.7841 12.9123 -9.51379 15.8903 -6.89823L-5.22687 17.1448ZM5.57807 21.2159C10.1183 21.2159 14.685 19.3117 17.9185 15.6045L-6.19684 -5.42999C-3.1118 -8.96687 1.24714 -10.7841 5.57807 -10.7841V21.2159ZM17.9166 15.6067L21.1442 11.9077L-2.9673 -9.13118L-6.19493 -5.43218L17.9166 15.6067ZM21.144 11.9079C27.09 5.09377 26.3862 -5.2505 19.5721 -11.1964L-1.4672 12.9147C-7.96927 7.24104 -8.64088 -2.62922 -2.96713 -9.13138L21.144 11.9079ZM19.5865 -11.1839C12.7606 -17.1544 2.42133 -16.4263 -3.51611 -9.64297L20.5628 11.4333C14.8991 17.9038 5.03302 18.6005 -1.48157 12.9022L19.5865 -11.1839ZM-3.53243 -9.6243L-6.76005 -5.9253L17.3515 15.1136L20.5791 11.4146L-3.53243 -9.6243ZM-6.74553 -5.94193C-12.7132 0.878282 -12.005 11.2446 -5.17361 17.1914L15.837 -6.94481C22.3557 -1.2703 23.0316 8.62201 17.3369 15.1302L-6.74553 -5.94193Z" fill="#808C92" mask="url(#path-1-inside-1_4996_109660)"/>
<path d="M11.0164 0.570709L5.73937 6.61833L3.18862 3.78671C3.04949 3.63296 2.81249 3.62021 2.65874 3.75896C2.50499 3.89771 2.49262 4.13471 2.63099 4.28883L4.11937 5.94108L3.52987 6.61795L0.979864 3.78708C0.840738 3.63333 0.603738 3.62058 0.449988 3.75933C0.296238 3.89808 0.283863 4.13508 0.422238 4.28921L3.25574 7.43433C3.32699 7.51308 3.42824 7.55845 3.53437 7.55845H3.53737C3.64462 7.5577 3.74662 7.51083 3.81712 7.42983L4.62487 6.50245L5.46487 7.4347C5.53612 7.51345 5.63737 7.55883 5.74349 7.55883H5.74649C5.85374 7.55808 5.95574 7.5112 6.02624 7.4302L11.5815 1.06346C11.7176 0.907459 11.7015 0.670834 11.5455 0.534334C11.3899 0.398959 11.1529 0.414709 11.0164 0.570709Z" fill="#0092AC"/>
</svg>
