<svg width="16" height="16" viewBox="0 0 16 16" fill="none" xmlns="http://www.w3.org/2000/svg">
<g clip-path="url(#clip0_981_73366)">
<path d="M6.59935 2.82664C7.05824 2.71923 7.52806 2.66554 7.99935 2.66664C12.666 2.66664 15.3327 7.99998 15.3327 7.99998C14.928 8.75705 14.4454 9.4698 13.8927 10.1266M9.41268 9.41331C9.22958 9.60981 9.00878 9.76741 8.76345 9.87673C8.51812 9.98604 8.25328 10.0448 7.98474 10.0496C7.7162 10.0543 7.44946 10.0049 7.20042 9.9043C6.95139 9.80371 6.72516 9.65399 6.53525 9.46408C6.34533 9.27416 6.19561 9.04794 6.09502 8.7989C5.99443 8.54987 5.94503 8.28312 5.94977 8.01458C5.95451 7.74604 6.01329 7.48121 6.1226 7.23587C6.23191 6.99054 6.38952 6.76974 6.58601 6.58664M11.9593 11.96C10.8197 12.8286 9.43209 13.3099 7.99935 13.3333C3.33268 13.3333 0.666016 7.99998 0.666016 7.99998C1.49528 6.45457 2.64544 5.10438 4.03935 4.03998L11.9593 11.96Z" stroke="#fff" stroke-width="1.67" stroke-linecap="round" stroke-linejoin="round"/>
<path d="M0.666016 0.666626L15.3327 15.3333" stroke="#ffff" stroke-width="1.67" stroke-linecap="round" stroke-linejoin="round"/>
</g>
<defs>
<clipPath id="clip0_981_73366">
<rect width="16" height="16" fill="white"/>
</clipPath>
</defs>
</svg>
