<svg width="16" height="16" viewBox="0 0 16 16" fill="none" xmlns="http://www.w3.org/2000/svg">
<path d="M12 8.09998H4C3.86739 8.09998 3.74021 8.16319 3.64645 8.27571C3.55268 8.38823 3.5 8.54085 3.5 8.69998C3.5 8.85911 3.55268 9.01172 3.64645 9.12424C3.74021 9.23676 3.86739 9.29998 4 9.29998H12C12.1326 9.29998 12.2598 9.23676 12.3536 9.12424C12.4473 9.01172 12.5 8.85911 12.5 8.69998C12.5 8.54085 12.4473 8.38823 12.3536 8.27571C12.2598 8.16319 12.1326 8.09998 12 8.09998Z" fill="#444B55"/>
<path d="M14.5 4.5H1.5C1.36739 4.5 1.24021 4.56321 1.14645 4.67574C1.05268 4.78826 1 4.94087 1 5.1C1 5.25913 1.05268 5.41174 1.14645 5.52426C1.24021 5.63679 1.36739 5.7 1.5 5.7H14.5C14.6326 5.7 14.7598 5.63679 14.8536 5.52426C14.9473 5.41174 15 5.25913 15 5.1C15 4.94087 14.9473 4.78826 14.8536 4.67574C14.7598 4.56321 14.6326 4.5 14.5 4.5Z" fill="#444B55"/>
<path d="M9.5 11.7H6.5C6.36739 11.7 6.24021 11.7632 6.14645 11.8757C6.05268 11.9882 6 12.1408 6 12.3C6 12.4591 6.05268 12.6117 6.14645 12.7242C6.24021 12.8367 6.36739 12.9 6.5 12.9H9.5C9.63261 12.9 9.75979 12.8367 9.85355 12.7242C9.94732 12.6117 10 12.4591 10 12.3C10 12.1408 9.94732 11.9882 9.85355 11.8757C9.75979 11.7632 9.63261 11.7 9.5 11.7Z" fill="#444B55"/>
</svg>
