<svg width="24" height="25" viewBox="0 0 24 25" fill="none" xmlns="http://www.w3.org/2000/svg">
<path d="M20.25 20V20.75H15V20V15.5C15 15.1022 14.842 14.7206 14.5607 14.4393C14.2794 14.158 13.8978 14 13.5 14H10.5C10.1022 14 9.72065 14.158 9.43934 14.4393C9.15803 14.7206 9 15.1022 9 15.5V20V20.75H3.75V20V11.3283C3.75 11.3283 3.75 11.3282 3.75 11.3281C3.75007 11.2241 3.77175 11.1213 3.81369 11.0261C3.8555 10.9312 3.91655 10.8461 3.99296 10.7759C3.99322 10.7757 3.99349 10.7755 3.99375 10.7752L11.4919 3.96128L11.4919 3.96129L11.4946 3.95884C11.6312 3.83347 11.8099 3.76392 11.9953 3.76392C12.1807 3.76392 12.3594 3.83347 12.496 3.95884L12.496 3.95885L12.4987 3.96128L19.9987 10.7769L19.9987 10.777L20.0063 10.7837C20.0831 10.8516 20.1446 10.9352 20.1866 11.0287C20.2287 11.1223 20.2503 11.2237 20.25 11.3263V11.3281V20Z" stroke="#808C92" stroke-width="1.5"/>
</svg>
