<svg width="24" height="25" viewBox="0 0 24 25" fill="none" xmlns="http://www.w3.org/2000/svg">
<path d="M22.5 20H21V11.3281C21.0005 11.119 20.9565 10.9122 20.8708 10.7214C20.7851 10.5307 20.6598 10.3604 20.5031 10.2219L13.0031 3.40623C12.7281 3.15391 12.3685 3.01392 11.9953 3.01392C11.6221 3.01392 11.2625 3.15391 10.9875 3.40623L3.4875 10.2219C3.33394 10.3623 3.2113 10.5332 3.12737 10.7237C3.04344 10.9142 3.00007 11.12 3 11.3281V20H1.5C1.30109 20 1.11032 20.079 0.96967 20.2197C0.829018 20.3603 0.75 20.5511 0.75 20.75C0.75 20.9489 0.829018 21.1397 0.96967 21.2803C1.11032 21.421 1.30109 21.5 1.5 21.5H22.5C22.6989 21.5 22.8897 21.421 23.0303 21.2803C23.171 21.1397 23.25 20.9489 23.25 20.75C23.25 20.5511 23.171 20.3603 23.0303 20.2197C22.8897 20.079 22.6989 20 22.5 20ZM14.25 20H9.75V15.5C9.75 15.3011 9.82902 15.1103 9.96967 14.9697C10.1103 14.829 10.3011 14.75 10.5 14.75H13.5C13.6989 14.75 13.8897 14.829 14.0303 14.9697C14.171 15.1103 14.25 15.3011 14.25 15.5V20Z" fill="#0092AC"/>
</svg>
