<svg width="17" height="14" viewBox="0 0 17 14" fill="red" xmlns="http://www.w3.org/2000/svg">
<path d="M14.3941 2.07333C14.0536 1.73267 13.6493 1.46243 13.2043 1.27805C12.7593 1.09368 12.2824 0.998779 11.8007 0.998779C11.3191 0.998779 10.8421 1.09368 10.3972 1.27805C9.95219 1.46243 9.5479 1.73267 9.2074 2.07333L8.50073 2.78L7.79406 2.07333C7.10627 1.38553 6.17342 0.999136 5.20073 0.999136C4.22804 0.999136 3.29519 1.38553 2.6074 2.07333C1.9196 2.76112 1.5332 3.69397 1.5332 4.66666C1.5332 5.63935 1.9196 6.5722 2.6074 7.26L3.31406 7.96666L8.50073 13.1533L13.6874 7.96666L14.3941 7.26C14.7347 6.91949 15.005 6.5152 15.1893 6.07023C15.3737 5.62526 15.4686 5.14832 15.4686 4.66666C15.4686 4.185 15.3737 3.70807 15.1893 3.26309C15.005 2.81812 14.7347 2.41383 14.3941 2.07333V2.07333Z" stroke="red" stroke-width="1.67" stroke-linecap="round" stroke-linejoin="round"/>
</svg>
