<svg width="14" height="14" viewBox="0 0 14 14" fill="none" xmlns="http://www.w3.org/2000/svg">
<path fill-rule="evenodd" clip-rule="evenodd" d="M12.095 5.72558H8.27321V1.9043C8.27321 1.56649 8.13902 1.24253 7.90016 1.00367C7.6613 0.764806 7.33733 0.630615 6.99953 0.630615C6.66173 0.630615 6.33776 0.764806 6.0989 1.00367C5.86004 1.24253 5.72585 1.56649 5.72585 1.9043V5.72558H1.90453C1.5684 5.72824 1.24695 5.86363 1.01021 6.10226C0.773467 6.34088 0.640625 6.6634 0.640625 6.99954C0.640625 7.33567 0.773467 7.65819 1.01021 7.89681C1.24695 8.13544 1.5684 8.27083 1.90453 8.2735H5.72582V12.0948C5.72582 12.4326 5.86001 12.7566 6.09887 12.9954C6.33773 13.2343 6.6617 13.3685 6.9995 13.3685C7.3373 13.3685 7.66127 13.2343 7.90013 12.9954C8.13899 12.7566 8.27318 12.4326 8.27318 12.0948V8.2735H12.095C12.4311 8.27083 12.7526 8.13544 12.9893 7.89681C13.2261 7.65819 13.3589 7.33567 13.3589 6.99954C13.3589 6.6634 13.2261 6.34088 12.9893 6.10226C12.7526 5.86363 12.4311 5.72824 12.095 5.72558H12.095Z" fill="#444B55"/>
</svg>
