<svg width="24" height="25" viewBox="0 0 24 25" fill="none" xmlns="http://www.w3.org/2000/svg">
<path d="M19.5 3.125H4.5C3.90326 3.125 3.33097 3.36205 2.90901 3.78401C2.48705 4.20597 2.25 4.77826 2.25 5.375V19.625C2.25 20.2217 2.48705 20.794 2.90901 21.216C3.33097 21.6379 3.90326 21.875 4.5 21.875H19.5C20.0967 21.875 20.669 21.6379 21.091 21.216C21.5129 20.794 21.75 20.2217 21.75 19.625V5.375C21.75 4.77826 21.5129 4.20597 21.091 3.78401C20.669 3.36205 20.0967 3.125 19.5 3.125ZM6.05625 10.9138C5.99975 10.7765 5.98527 10.6255 6.01464 10.48C6.04402 10.3344 6.11592 10.2009 6.22125 10.0963L8.47125 7.84625C8.61473 7.72338 8.79928 7.65918 8.98804 7.66647C9.1768 7.67376 9.35585 7.75201 9.48942 7.88558C9.62299 8.01915 9.70124 8.1982 9.70853 8.38696C9.71582 8.57572 9.65162 8.76027 9.52875 8.90375L8.56125 9.875H16.875C17.0739 9.875 17.2647 9.95402 17.4053 10.0947C17.546 10.2353 17.625 10.4261 17.625 10.625C17.625 10.8239 17.546 11.0147 17.4053 11.1553C17.2647 11.296 17.0739 11.375 16.875 11.375H6.75C6.60172 11.3753 6.45667 11.3317 6.33319 11.2496C6.20971 11.1675 6.11334 11.0506 6.05625 10.9138ZM18.1537 15.2787L15.9037 17.5287C15.8365 17.6073 15.7538 17.671 15.6607 17.716C15.5677 17.7611 15.4663 17.7864 15.363 17.7903C15.2598 17.7943 15.1568 17.7769 15.0605 17.7392C14.9643 17.7015 14.8769 17.6443 14.8038 17.5712C14.7307 17.4981 14.6735 17.4107 14.6358 17.3145C14.5981 17.2182 14.5807 17.1152 14.5847 17.012C14.5886 16.9087 14.6139 16.8073 14.659 16.7143C14.704 16.6212 14.7677 16.5385 14.8463 16.4713L15.8137 15.5H7.5C7.30109 15.5 7.11032 15.421 6.96967 15.2803C6.82902 15.1397 6.75 14.9489 6.75 14.75C6.75 14.5511 6.82902 14.3603 6.96967 14.2197C7.11032 14.079 7.30109 14 7.5 14H17.625C17.7733 13.9997 17.9183 14.0433 18.0418 14.1254C18.1653 14.2075 18.2617 14.3244 18.3187 14.4613C18.3752 14.5985 18.3897 14.7495 18.3604 14.895C18.331 15.0406 18.2591 15.1741 18.1537 15.2787Z" fill="#0092AC"/>
</svg>
