<svg width="24" height="25" viewBox="0 0 24 25" fill="none" xmlns="http://www.w3.org/2000/svg">
<path d="M19.5 3.125H4.5C3.90326 3.125 3.33097 3.36205 2.90901 3.78401C2.48705 4.20597 2.25 4.77826 2.25 5.375V19.625C2.25 20.2217 2.48705 20.794 2.90901 21.216C3.33097 21.6379 3.90326 21.875 4.5 21.875H19.5C20.0967 21.875 20.669 21.6379 21.091 21.216C21.5129 20.794 21.75 20.2217 21.75 19.625V5.375C21.75 4.77826 21.5129 4.20597 21.091 3.78401C20.669 3.36205 20.0967 3.125 19.5 3.125ZM20.25 19.625C20.25 19.8239 20.171 20.0147 20.0303 20.1553C19.8897 20.296 19.6989 20.375 19.5 20.375H4.5C4.30109 20.375 4.11032 20.296 3.96967 20.1553C3.82902 20.0147 3.75 19.8239 3.75 19.625V5.375C3.75 5.17609 3.82902 4.98532 3.96967 4.84467C4.11032 4.70402 4.30109 4.625 4.5 4.625H19.5C19.6989 4.625 19.8897 4.70402 20.0303 4.84467C20.171 4.98532 20.25 5.17609 20.25 5.375V19.625Z" fill="#808C92"/>
<path d="M16.8756 11.375C17.0745 11.375 17.2653 11.296 17.4059 11.1553C17.5466 11.0147 17.6256 10.8239 17.6256 10.625C17.6256 10.4261 17.5466 10.2353 17.4059 10.0946C17.2653 9.954 17.0745 9.87498 16.8756 9.87498H8.56185L9.5331 8.90373C9.67383 8.76299 9.75289 8.57212 9.75289 8.3731C9.75289 8.17408 9.67383 7.9832 9.5331 7.84247C9.39237 7.70174 9.2015 7.62268 9.00247 7.62268C8.80345 7.62268 8.61258 7.70174 8.47185 7.84247L6.22185 10.0925C6.11631 10.1972 6.04425 10.3308 6.01484 10.4765C5.98542 10.6223 5.99996 10.7734 6.05662 10.9108C6.11328 11.0483 6.20949 11.1658 6.33306 11.2484C6.45662 11.331 6.60195 11.3751 6.7506 11.375H16.8756Z" fill="#808C92"/>
<path d="M17.625 14H7.5C7.30109 14 7.11032 14.079 6.96967 14.2197C6.82902 14.3603 6.75 14.5511 6.75 14.75C6.75 14.9489 6.82902 15.1397 6.96967 15.2803C7.11032 15.421 7.30109 15.5 7.5 15.5H15.8138L14.8425 16.4713C14.7018 16.612 14.6227 16.8029 14.6227 17.0019C14.6227 17.2009 14.7018 17.3918 14.8425 17.5325C14.9832 17.6732 15.1741 17.7523 15.3731 17.7523C15.5722 17.7523 15.763 17.6732 15.9038 17.5325L18.1538 15.2825C18.2593 15.1778 18.3314 15.0441 18.3608 14.8984C18.3902 14.7527 18.3757 14.6016 18.319 14.4641C18.2623 14.3267 18.1661 14.2092 18.0426 14.1266C17.919 14.0439 17.7737 13.9999 17.625 14Z" fill="#808C92"/>
</svg>
